# xmcd CD database file
#
# Track frame offsets:
#	150
#	15092
#	27802
#	43690
#	54170
#	65720
#	79705
#	100252
#	112747
#	127402
#	136872
#	145847
#	160690
#	180057
#	196165
#	213382
#	231492
#	245207
#	257300
#	279360
#	295360
#	313327
#	327565
#
# Disc length: 4572 seconds
#
# Revision: 4
# Processed by: cddbd v1.4PL0 Copyright (c) Steve Scherf et al.
# Submitted via: CDex 1.50beta10
#
DISCID=4411da17
DTITLE=Various Artist - Lady sings the blues [CD1)
DYEAR=1900
DGENRE=Blues
TTITLE0=Peggy Lee - Fever
TTITLE1=Julie London - Cry me a river
TTITLE2=Dusty Springfield - The look of love
TTITLE3=Dinah Washington - Call me irresponsible
TTITLE4=Erma Franklin - Piece of my heart
TTITLE5=Etta James - I just wanna make love to you
TTITLE6=Gladys Knight and the Pips - Midnight train to Georgia
TTITLE7=Aretha Franklin - Today I sing the blues
TTITLE8=P.P. Arnold - Angel of the morning
TTITLE9=Bobby Gentry - Son of a preacher man
TTITLE10=Nancy Wilson - Wives and lovers
TTITLE11=Sarah Vaughan - Black coffee
TTITLE12=June Christy - Sonething cool
TTITLE13=Dinah Shore - My funny valentine
TTITLE14=Rosemary Clooney - One for my baby
TTITLE15=Keely Smith - It was a very good year
TTITLE16=Erma Thomas - I've been loving you too long
TTITLE17=Judy Clay and William Bell - Private number
TTITLE18=The Staple Singers - Respect yourself
TTITLE19=Ella Fitzgerald - Misty blue
TTITLE20=Millie Jackson - (If loving you is wrong) I don't want to be right
TTITLE21=Billie Holiday - Trav'lin light
TTITLE22=Nina Simone - Wild is the wind
EXTD=
EXTT0=
EXTT1=
EXTT2=
EXTT3=
EXTT4=
EXTT5=
EXTT6=
EXTT7=
EXTT8=
EXTT9=
EXTT10=
EXTT11=
EXTT12=
EXTT13=
EXTT14=
EXTT15=
EXTT16=
EXTT17=
EXTT18=
EXTT19=
EXTT20=
EXTT21=
EXTT22=
PLAYORDER=
